<svg width="1900" height="1900" viewBox="0 0 1900 1900" xmlns="http://www.w3.org/2000/svg">
    <rect width="100%" height="100%" fill="#d5ad59" />

    <rect x="50" y="50" width="1800" height="2" stroke="black"/>
    <rect x="50" y="150" width="1800" height="2" stroke="black"/>
    <rect x="50" y="250" width="1800" height="2" stroke="black"/>
    <rect x="50" y="350" width="1800" height="2" stroke="black"/>
    <rect x="50" y="450" width="1800" height="2" stroke="black"/>
    <rect x="50" y="550" width="1800" height="2" stroke="black"/>
    <rect x="50" y="650" width="1800" height="2" stroke="black"/>
    <rect x="50" y="750" width="1800" height="2" stroke="black"/>
    <rect x="50" y="850" width="1800" height="2" stroke="black"/>
    <rect x="50" y="950" width="1800" height="2" stroke="black"/>
    <rect x="50" y="1050" width="1800" height="2" stroke="black"/>
    <rect x="50" y="1150" width="1800" height="2" stroke="black"/>
    <rect x="50" y="1250" width="1800" height="2" stroke="black"/>
    <rect x="50" y="1350" width="1800" height="2" stroke="black"/>
    <!-- <rect x="50" y="1450" width="1800" height="2" stroke="black"/>
    <rect x="50" y="1550" width="1800" height="2" stroke="black"/>
    <rect x="50" y="1650" width="1800" height="2" stroke="black"/>
    <rect x="50" y="1750" width="1800" height="2" stroke="black"/>
    <rect x="50" y="1850" width="1800" height="2" stroke="black"/> -->

    <rect x="50" y="50" width="2" height="1800" stroke="black"/>
    <rect x="150" y="50" width="2" height="1800" stroke="black"/>
    <rect x="250" y="50" width="2" height="1800" stroke="black"/>
    <rect x="350" y="50" width="2" height="1800" stroke="black"/>
    <rect x="450" y="50" width="2" height="1800" stroke="black"/>
    <rect x="550" y="50" width="2" height="1800" stroke="black"/>
    <rect x="650" y="50" width="2" height="1800" stroke="black"/>
    <rect x="750" y="50" width="2" height="1800" stroke="black"/>
    <rect x="850" y="50" width="2" height="1800" stroke="black"/>
    <rect x="950" y="50" width="2" height="1800" stroke="black"/>
    <rect x="1050" y="50" width="2" height="1800" stroke="black"/>
    <rect x="1150" y="50" width="2" height="1800" stroke="black"/>
    <rect x="1250" y="50" width="2" height="1800" stroke="black"/>
    <rect x="1350" y="50" width="2" height="1800" stroke="black"/>
    <!-- <rect x="1450" y="50" width="2" height="1800" stroke="black"/>
    <rect x="1550" y="50" width="2" height="1800" stroke="black"/>
    <rect x="1650" y="50" width="2" height="1800" stroke="black"/>
    <rect x="1750" y="50" width="2" height="1800" stroke="black"/>
    <rect x="1850" y="50" width="2" height="1800" stroke="black"/> -->

    <circle cx="351" cy="351" r="10" />
    <circle cx="351" cy="951" r="10" />
    <circle cx="351" cy="1551" r="10" />
    <circle cx="951" cy="351" r="10" />
    <circle cx="951" cy="951" r="10" />
    <circle cx="951" cy="1551" r="10" />
    <circle cx="1551" cy="351" r="10" />
    <circle cx="1551" cy="951" r="10" />
    <circle cx="1551" cy="1551" r="10" />
</svg>